<?xml version="1.0" standalone="no"?>
<!DOCTYPE svg PUBLIC "-//W3C//DTD SVG 20010904//EN"
 "http://www.w3.org/TR/2001/REC-SVG-20010904/DTD/svg10.dtd">
<svg version="1.0" xmlns="http://www.w3.org/2000/svg"
 width="339.000000pt" height="332.000000pt" viewBox="0 0 339.000000 332.000000"
 preserveAspectRatio="xMidYMid meet">

<g transform="translate(0.000000,332.000000) scale(0.100000,-0.100000)"
fill="#000000" stroke="none">
<path d="M0 1660 l0 -1660 1695 0 1695 0 0 1660 0 1660 -1695 0 -1695 0 0
-1660z m3330 -5 l0 -1595 -1630 0 -1630 0 0 1595 0 1595 1630 0 1630 0 0
-1595z"/>
<path d="M1526 1917 c-17 -38 -18 -38 -58 -32 l-41 7 22 -28 c13 -16 39 -34
59 -40 27 -9 31 -12 15 -13 -25 -1 -30 -16 -10 -28 7 -4 26 -25 41 -45 25 -33
26 -38 10 -38 -10 0 -49 -30 -86 -67 l-68 -67 0 132 0 132 -55 0 -55 0 0 -235
0 -235 55 0 55 0 0 43 c0 33 6 49 24 66 l24 23 36 -48 36 -47 -22 -25 -23 -25
30 7 c28 6 29 5 11 -9 -11 -8 -28 -15 -37 -15 -10 0 -27 -13 -38 -29 l-21 -29
39 5 c38 5 40 4 55 -31 8 -20 18 -36 22 -36 7 0 0 54 -11 83 -4 9 -3 17 3 17
5 0 12 -15 16 -32 5 -25 9 -29 16 -19 5 9 5 22 -1 32 -5 10 -9 28 -8 41 1 22
2 22 12 -4 15 -37 30 -36 22 2 -7 30 -6 30 39 30 25 0 46 2 46 5 0 3 -22 33
-48 68 -27 34 -59 77 -71 95 l-24 34 44 44 43 44 22 -27 c12 -16 24 -26 26
-23 3 3 35 43 72 90 38 47 72 87 77 88 5 2 9 -83 9 -197 0 -111 -3 -201 -7
-201 -5 0 -39 41 -78 90 -38 50 -73 90 -76 90 -10 0 -49 -55 -49 -68 0 -5 7
-15 16 -23 12 -10 17 -10 23 0 6 9 21 -3 50 -40 38 -48 41 -56 37 -98 -5 -42
-4 -44 6 -18 12 28 35 39 24 11 -23 -59 -12 -94 11 -36 10 23 11 19 6 -27 -6
-59 10 -66 22 -10 7 29 9 31 46 27 21 -2 39 -2 39 0 0 18 -38 51 -65 56 -39 8
-47 22 -12 22 12 0 43 1 70 2 l47 2 0 85 0 85 95 0 95 0 0 -85 0 -85 55 0 55
0 0 221 0 222 -37 -7 c-21 -3 -46 -6 -55 -6 -16 0 -18 -11 -18 -80 l0 -80 -95
0 -95 0 0 86 0 87 -43 -6 c-24 -4 -48 -2 -53 2 -5 5 -18 11 -29 13 -16 4 -15
6 10 13 31 8 75 42 75 57 0 4 -18 5 -39 2 -37 -6 -39 -5 -46 25 -12 56 -29 49
-22 -10 6 -54 6 -54 -7 -19 -11 27 -15 31 -21 18 -3 -9 -2 -25 4 -37 6 -11 11
-24 11 -30 0 -21 -16 -11 -28 17 -11 25 -11 24 -7 -17 5 -38 1 -48 -32 -92
-20 -27 -40 -49 -44 -49 -4 0 -26 23 -48 52 -41 50 -42 56 -24 106 9 22 -14
13 -25 -10 -14 -30 -16 0 -2 36 6 16 6 28 0 31 -5 3 -12 -6 -16 -20 -3 -14
-10 -25 -15 -25 -4 0 -3 13 2 30 6 16 9 37 6 47 -3 13 -8 8 -21 -20z"/>
<path d="M292 1792 l-153 -3 3 -42 3 -42 68 -3 67 -3 0 -169 0 -170 60 0 60 0
0 170 0 170 70 0 70 0 0 49 0 49 -47 -1 c-27 -1 -117 -3 -201 -5z"/>
<path d="M2383 1793 l-43 -4 0 -148 c0 -159 8 -197 52 -238 36 -34 92 -53 156
-53 83 0 139 31 171 94 23 44 25 63 29 197 5 169 6 166 -73 155 l-45 -7 0
-139 c0 -82 -5 -149 -11 -164 -25 -53 -114 -58 -147 -8 -13 20 -18 57 -22 171
-3 85 -9 145 -15 146 -5 1 -29 0 -52 -2z"/>
<path d="M2848 1794 c-5 -4 -8 -103 -8 -219 l0 -212 58 -6 c31 -3 105 -2 165
2 84 6 113 12 135 28 63 47 66 120 7 172 -33 29 -34 31 -15 41 10 6 24 28 31
49 9 32 8 44 -6 74 -26 56 -66 69 -225 75 -74 2 -138 1 -142 -4z m250 -96 c18
-18 14 -56 -7 -68 -11 -5 -47 -10 -80 -10 l-61 0 0 45 0 45 68 0 c40 0 73 -5
80 -12z m6 -168 c20 -7 26 -17 26 -39 0 -40 -23 -51 -109 -51 l-71 0 0 50 0
50 64 0 c36 0 76 -4 90 -10z"/>
<path d="M612 1689 c-41 -12 -48 -29 -28 -67 l16 -30 39 15 c48 19 106 11 121
-17 15 -28 13 -30 -36 -30 -69 0 -132 -19 -154 -48 -29 -37 -26 -85 9 -124 27
-31 34 -33 94 -33 50 0 70 4 86 19 19 17 21 17 21 3 0 -14 10 -17 50 -17 l50
0 0 118 c0 135 -13 174 -70 204 -38 20 -140 23 -198 7z m156 -216 c-6 -55
-108 -68 -108 -14 0 26 26 40 73 41 36 0 38 -2 35 -27z"/>
<path d="M1005 1682 c-41 -26 -55 -44 -61 -84 -4 -24 0 -40 16 -60 20 -26 38
-34 138 -58 48 -12 56 -36 15 -46 -25 -7 -98 4 -133 20 -12 5 -19 -3 -29 -29
-7 -19 -10 -39 -7 -44 8 -13 88 -31 137 -31 106 0 162 42 157 118 -4 57 -29
77 -118 94 -54 11 -65 16 -65 33 0 18 7 20 55 20 30 0 64 -3 75 -8 17 -6 23
-1 33 26 16 45 16 43 -19 56 -52 18 -159 14 -194 -7z"/>
</g>
</svg>
